<svg width="190" height="200" viewBox="0 0 190 200" fill="none" xmlns="http://www.w3.org/2000/svg">
<path d="M69.2642 164.568C57.9747 162.911 46.7397 160.373 35.461 158.531C29.5402 157.565 23.539 156.773 17.9092 154.407C12.2795 152.041 6.9517 147.886 4.06757 141.719C1.37124 135.954 1.06755 129.111 0.825109 122.535C0.128423 103.643 -1.89177 79.725 6.39677 62.7593C14.1403 46.9091 27.4877 37.9987 42.5487 34.683C57.6279 31.3634 73.1336 33.0364 88.4651 32.4242C100.655 31.9373 112.792 29.9988 124.989 29.9691C137.186 29.9394 149.693 31.9461 160.407 38.8094C173.639 47.2846 183.13 62.8067 187.261 79.8659C191.391 96.9251 190.435 115.361 186.083 132.344C183.438 142.666 178.89 153.371 170.53 157.766C164.857 160.748 158.384 160.309 152.172 160.33C131.057 160.402 110.185 166.431 89.0703 166.255C82.4368 166.2 75.8413 165.534 69.2642 164.568Z" fill="#B3CCF9"/>
<path d="M135.657 0.000575094L62.1758 11.3066L78.0661 114.553L151.548 103.247L135.657 0.000575094Z" fill="#FFD064"/>
<path d="M89.9057 33.2562C93.4914 29.3263 93.212 23.234 89.2815 19.6488C85.351 16.0636 79.2579 16.3431 75.6722 20.273C72.0865 24.2029 72.366 30.2951 76.2964 33.8803C80.2269 37.4655 86.32 37.1861 89.9057 33.2562Z" fill="white"/>
<path d="M94.0085 55.2851C97.1878 51.0201 96.3071 44.9857 92.0415 41.8069C87.7758 38.628 81.7405 39.5086 78.5613 43.7736C75.382 48.0386 76.2627 54.073 80.5283 57.2519C84.7939 60.4307 90.8292 59.5501 94.0085 55.2851Z" fill="white"/>
<path d="M97.4264 76.5737C100.513 72.2412 99.5016 66.2274 95.1685 63.1417C90.8353 60.056 84.8207 61.0668 81.7345 65.3993C78.6483 69.7319 79.6592 75.7456 83.9924 78.8313C88.3256 81.9171 94.3402 80.9063 97.4264 76.5737Z" fill="white"/>
<path d="M100.772 99.3807C103.967 95.1269 103.107 89.0895 98.8525 85.8958C94.5981 82.7021 88.5598 83.5615 85.3656 87.8153C82.1714 92.0692 83.0309 98.1066 87.2854 101.3C91.5399 104.494 97.5782 103.635 100.772 99.3807Z" fill="white"/>
<path d="M82.7221 34.5924C80.9839 34.5924 79.296 34.0432 77.8681 32.9963C76.0932 31.6951 74.9315 29.7806 74.5967 27.6059C73.9054 23.1164 76.9964 18.9013 81.4865 18.2104C85.9756 17.517 90.1923 20.6098 90.8839 25.0993V25.0996C91.5751 29.589 88.4842 33.8042 83.9937 34.495C83.5687 34.56 83.1442 34.5924 82.7221 34.5924ZM82.7444 19.2972C82.3889 19.2972 82.0289 19.324 81.6669 19.3799C77.8213 19.9716 75.1748 23.581 75.7666 27.426C76.0533 29.2883 77.0484 30.9278 78.5682 32.042C80.0883 33.1565 81.9514 33.6113 83.8136 33.3252C87.6592 32.7335 90.3061 29.1238 89.7143 25.2791V25.2794C89.1774 21.7966 86.1649 19.2972 82.7444 19.2972Z" fill="black"/>
<path d="M86.2148 57.1951C82.2197 57.1951 78.7021 54.2769 78.0762 50.2095C77.7414 48.0345 78.2734 45.8594 79.5748 44.0848C80.8762 42.3102 82.7913 41.1486 84.9664 40.8138C89.4574 40.121 93.6722 43.2128 94.3631 47.7026C95.0543 52.1924 91.9634 56.4072 87.4733 57.0984C87.0509 57.1634 86.6297 57.1951 86.2148 57.1951ZM86.2347 41.8996C85.8737 41.8996 85.5101 41.9274 85.1465 41.9833C83.2834 42.27 81.6439 43.2648 80.5296 44.7844C79.4149 46.304 78.9594 48.1669 79.2458 50.0294C79.5323 51.8919 80.5276 53.5312 82.0477 54.6454C83.5675 55.7592 85.4297 56.2143 87.2932 55.9286C91.1388 55.3368 93.7853 51.7272 93.1935 47.8821C92.9067 46.0199 91.9117 44.3803 90.3919 43.2661C89.1687 42.37 87.7235 41.8996 86.2347 41.8996Z" fill="black"/>
<path d="M90.5759 53.1179C90.4585 53.1179 90.3398 53.0832 90.2365 53.0106L81.6994 47.0251C81.4319 46.8375 81.3668 46.4687 81.5545 46.2009C81.7425 45.9335 82.1124 45.8691 82.3788 46.0564L90.916 52.0419C91.1834 52.2296 91.2485 52.5987 91.0608 52.8661C90.9457 53.0302 90.762 53.1179 90.5759 53.1179Z" fill="black"/>
<path d="M83.1363 54.2618C83.0107 54.2618 82.8842 54.2223 82.7769 54.1399C82.5173 53.9411 82.4682 53.5697 82.667 53.3104L89.0085 45.0348C89.207 44.7749 89.5781 44.7262 89.838 44.9249C90.0977 45.1237 90.1467 45.4951 89.9479 45.7544L83.6065 54.03C83.4897 54.1824 83.3138 54.2618 83.1363 54.2618Z" fill="black"/>
<path d="M89.6063 79.2192C85.6112 79.2192 82.0936 76.301 81.4677 72.2336C80.7765 67.7442 83.8675 63.529 88.3575 62.8382C90.531 62.5028 92.708 63.035 94.4832 64.3369C96.258 65.6377 97.4198 67.5523 97.7546 69.727C98.4459 74.2165 95.3549 78.4316 90.8648 79.1224C90.4424 79.1878 90.0212 79.2192 89.6063 79.2192ZM89.6158 63.9249C89.2597 63.9249 88.9 63.9521 88.5377 64.0076C84.6921 64.5994 82.0455 68.2087 82.6374 72.0538C82.9238 73.9163 83.9191 75.5556 85.4393 76.6698C86.9591 77.7836 88.8215 78.2387 90.6847 77.953C94.5303 77.3612 97.1769 73.7519 96.585 69.9068C96.0488 66.4243 93.0363 63.9249 89.6158 63.9249Z" fill="black"/>
<path d="M89.9064 74.046C89.7079 74.046 89.5085 73.992 89.3296 73.8802L83.6912 70.3418C83.4146 70.1682 83.3309 69.803 83.5048 69.5261C83.6788 69.2492 84.0434 69.1665 84.3206 69.3394L89.8852 72.8314L97.9537 62.7988C98.1587 62.5441 98.5315 62.5043 98.7859 62.7086C99.0406 62.9132 99.0808 63.286 98.8761 63.5403L90.7536 73.6402C90.5404 73.9054 90.2259 74.046 89.9064 74.046Z" fill="black"/>
<path d="M93.0737 101.825C91.3354 101.825 89.6476 101.275 88.2197 100.228C86.4448 98.9272 85.283 97.0127 84.9482 94.838C84.257 90.3485 87.3479 86.1334 91.838 85.4426C96.3284 84.7505 100.544 87.8416 101.235 92.3314C101.57 94.5061 101.038 96.6812 99.7362 98.4558C98.4348 100.23 96.5204 101.392 94.3453 101.727C93.9202 101.792 93.4955 101.825 93.0737 101.825ZM93.0956 86.529C92.7401 86.529 92.3801 86.5558 92.0182 86.6117C88.1726 87.2034 85.526 90.8128 86.1178 94.6578C86.4046 96.5204 87.3996 98.1596 88.9194 99.2738C90.4392 100.388 92.3033 100.843 94.1648 100.557C96.0279 100.27 97.6674 99.2754 98.7821 97.7558C99.8968 96.2363 100.352 94.3734 100.065 92.5112V92.5109C99.5289 89.0284 96.5161 86.529 93.0956 86.529Z" fill="black"/>
<path d="M97.4493 97.745C97.3319 97.745 97.2135 97.7104 97.1099 97.6378L88.5724 91.6523C88.305 91.4646 88.2399 91.0959 88.4276 90.8281C88.6156 90.5607 88.9847 90.4959 89.2519 90.6833L97.7893 96.6688C98.0568 96.8564 98.1219 97.2255 97.9342 97.493C97.8191 97.6571 97.6353 97.745 97.4493 97.745Z" fill="black"/>
<path d="M90.0093 98.8907C89.8837 98.8907 89.7572 98.8512 89.65 98.7688C89.3903 98.57 89.3413 98.1986 89.5401 97.9393L95.8815 89.6637C96.08 89.4038 96.4508 89.3551 96.7111 89.5538C96.9707 89.7526 97.0198 90.124 96.821 90.3833L90.4795 98.6589C90.3628 98.8109 90.1869 98.8907 90.0093 98.8907Z" fill="black"/>
<path d="M96.421 23.1618C96.134 23.1618 95.8822 22.9525 95.837 22.6599C95.7873 22.3372 96.0087 22.0348 96.3318 21.9851L109.205 20.0036C109.525 19.9516 109.83 20.1752 109.88 20.4983C109.93 20.8209 109.708 21.1234 109.385 21.1731L96.5119 23.1546C96.4815 23.1595 96.4511 23.1618 96.421 23.1618Z" fill="black"/>
<path d="M96.9249 26.4396C96.6378 26.4396 96.3861 26.2303 96.341 25.9377C96.2913 25.615 96.5126 25.3126 96.8357 25.2629L130.272 20.1167C130.592 20.0657 130.897 20.288 130.947 20.6113C130.996 20.934 130.775 21.2364 130.452 21.2861L97.0158 26.4324C96.9854 26.4373 96.955 26.4396 96.9249 26.4396Z" fill="black"/>
<path d="M99.9894 46.3407C99.7023 46.3407 99.4505 46.1315 99.4054 45.8389C99.3557 45.5159 99.5771 45.2138 99.9001 45.1641L112.773 43.1829C113.093 43.1326 113.399 43.3545 113.448 43.6776C113.498 44.0006 113.277 44.3026 112.953 44.352L100.08 46.3332C100.05 46.3385 100.019 46.3407 99.9894 46.3407Z" fill="black"/>
<path d="M100.493 49.6173C100.206 49.6173 99.9544 49.408 99.9093 49.1154C99.8596 48.7928 100.081 48.4903 100.404 48.4406L133.84 43.2944C134.16 43.2434 134.465 43.4657 134.515 43.789C134.565 44.1117 134.343 44.4141 134.02 44.4638L100.584 49.6101C100.554 49.615 100.523 49.6173 100.493 49.6173Z" fill="black"/>
<path d="M103.292 67.7885C103.005 67.7885 102.753 67.5793 102.708 67.2867C102.658 66.964 102.88 66.6616 103.203 66.6119L116.076 64.6303C116.397 64.5793 116.701 64.802 116.751 65.125C116.801 65.4477 116.579 65.7501 116.256 65.7998L103.383 67.7813C103.353 67.7865 103.322 67.7885 103.292 67.7885Z" fill="black"/>
<path d="M103.796 71.0666C103.509 71.0666 103.257 70.8574 103.212 70.5648C103.162 70.2421 103.384 69.9397 103.707 69.89L137.143 64.7438C137.464 64.6921 137.768 64.9154 137.818 65.2384C137.867 65.5611 137.646 65.8635 137.323 65.9132L103.887 71.0595C103.857 71.0644 103.826 71.0666 103.796 71.0666Z" fill="black"/>
<path d="M106.86 90.9702C106.573 90.9702 106.322 90.761 106.277 90.4684C106.227 90.1457 106.448 89.8433 106.771 89.7936L119.644 87.812C119.965 87.7607 120.269 87.9834 120.319 88.3067C120.369 88.6294 120.147 88.9318 119.825 88.9815L106.951 90.963C106.921 90.9683 106.891 90.9702 106.86 90.9702Z" fill="black"/>
<path d="M107.364 94.2487C107.077 94.2487 106.826 94.0395 106.78 93.7468C106.731 93.4242 106.952 93.1218 107.275 93.0721L140.711 87.9255C141.032 87.8735 141.336 88.0971 141.386 88.4201C141.436 88.7428 141.214 89.0452 140.891 89.0949L107.455 94.2415C107.425 94.2464 107.394 94.2487 107.364 94.2487Z" fill="black"/>
<path d="M106.968 169.545C105.542 179.309 104.116 189.073 102.69 198.838C78.6059 202.163 53.7528 198.362 32.2617 187.401C33.5778 178.249 35.077 169.585 37.943 160.766C54.9548 161.447 71.6112 163.406 88.2254 166.984C94.2823 168.289 100.889 170.749 106.968 169.545Z" fill="#1E7AF5"/>
<path d="M148.556 150.189C142.269 153.843 135.599 156.836 128.69 159.105C125.101 160.284 121.219 161.27 117.588 160.225C114.037 159.203 111.298 156.395 109.037 153.474C101.501 143.737 97.4646 131.817 93.5565 120.142C92.69 117.554 91.8235 114.965 90.957 112.377C102.066 112.314 111.483 111.167 122.251 108.436C124.127 116.577 125.145 125.619 127.041 133.846C127.35 135.187 127.718 136.576 128.624 137.612C130.038 139.226 132.414 139.591 134.555 139.448C136.696 139.306 138.829 138.763 140.962 138.989C146.229 139.546 150.147 145.137 148.556 150.189Z" fill="#DBBEF7"/>
<path d="M34.1097 164.234C35.9941 146.096 38.3255 123.666 47.839 108.107C41.6172 103.557 37.6176 103.464 30.75 99.9633C33.1085 90.8759 39.9221 79.5104 48.4694 75.6241C58.4612 71.0814 66.0171 70.6266 76.9765 70.0215C83.606 72.2302 90.4023 73.7623 96.4465 77.2689C102.491 80.7759 107.927 85.6947 110.856 92.0381C113.654 98.0965 113.984 104.963 114.214 111.632C114.911 131.828 115.052 152.483 108.729 171.677C84.1419 176.957 56.6334 175.417 34.1097 164.234Z" fill="#7D26CD"/>
<path d="M109.566 43.0581C108.166 39.996 106.041 37.1177 103.025 35.621C101.898 35.062 100.257 34.8524 99.6234 35.9391C99.4461 36.2432 99.3703 36.6263 99.0881 36.8365C98.7968 37.054 98.3906 37.0072 98.0365 36.9255C96.2002 36.5008 94.5954 35.4258 92.9608 34.4879C91.3262 33.5499 89.5216 32.7106 87.6408 32.8368C85.7604 32.963 83.8475 34.3747 83.7835 36.2582C83.7423 37.4669 84.4387 38.6419 84.2458 39.8355C83.9476 41.6807 81.8062 42.5366 80.6879 44.0346C79.7319 45.3152 79.5929 47.1546 80.3456 48.5643C81.1078 49.9917 82.6524 50.9297 83.2181 52.4453C83.7907 53.9793 83.2155 55.6993 83.4303 57.3225C83.6922 59.3018 85.2029 61.0217 87.0863 61.6848C88.9697 62.3478 91.1441 61.9954 92.8156 60.9034C94.1569 60.0272 95.1656 58.7388 96.3326 57.6409C98.7677 55.3508 101.895 53.9567 105.198 53.5369C106.159 53.415 107.142 53.3532 107.988 52.8327C109.208 52.0811 110.212 50.691 110.582 49.3208C111.151 47.2121 110.443 44.9749 109.566 43.0581Z" fill="#10173A"/>
<path d="M105.135 44.7079C107.569 46.4707 108.489 49.7329 108.357 52.7351C108.137 57.7198 105.711 63.8338 101.925 67.0835C100.73 68.1085 99.48 68.6924 97.8922 68.6862C96.4463 68.6806 95.0328 67.7047 94.0008 66.7713C92.6874 68.6518 92.3594 75.6417 92.5559 77.7396C92.7524 79.8375 79.0189 71.2114 81.5828 69.1148C84.8421 66.4493 87.1905 59.3637 89.0268 55.5752C89.189 55.2407 89.0301 54.6261 88.7103 54.4361C88.3905 54.2462 88.004 54.2096 87.6617 54.0644C86.3341 53.5011 86.2063 51.6958 86.3243 50.2586C86.4084 49.2379 86.5346 48.1558 87.1719 47.3538C87.8091 46.5518 89.1426 46.221 89.8577 46.9546C90.4554 47.5683 90.4413 48.6886 91.1927 49.0999C91.6718 49.3618 92.2891 49.2026 92.7259 48.875C93.1628 48.5474 93.4679 48.0792 93.8007 47.6464C96.2472 44.4647 99.757 43.1936 103.731 44.1198C104.156 44.1871 104.781 44.4797 105.135 44.7079Z" fill="white"/>
<path d="M100.309 60.9002C100.05 60.9002 99.8083 60.8175 99.6121 60.6596C99.4443 60.5236 99.4178 60.2768 99.5535 60.1087C99.6902 59.9403 99.9364 59.9145 100.105 60.0502C100.18 60.112 100.281 60.1313 100.404 60.1077C100.61 60.0682 100.819 59.9178 100.923 59.7324C101.127 59.3721 101.131 58.9089 101.135 58.4181L101.136 58.2861C101.145 57.4704 101.221 56.6491 101.362 55.8442C101.472 55.2175 101.644 54.5002 102.089 53.9287C102.221 53.758 102.467 53.727 102.639 53.8597C102.809 53.9924 102.84 54.2383 102.707 54.4093C102.369 54.8441 102.232 55.4211 102.134 55.9795C102 56.7423 101.928 57.5217 101.919 58.2949L101.918 58.4243C101.914 58.9664 101.909 59.581 101.605 60.1175C101.387 60.5033 100.983 60.7943 100.55 60.877C100.469 60.892 100.388 60.9002 100.309 60.9002Z" fill="#7D26CD"/>
<path d="M99.3268 62.7862C99.3055 62.7862 99.2836 62.7842 99.2614 62.7809C98.3929 62.6345 97.7886 62.282 97.4653 61.7325C97.0556 61.0364 97.2524 60.2819 97.3561 59.9893C97.428 59.7859 97.6513 59.679 97.856 59.7509C98.0597 59.8229 98.1666 60.0468 98.0944 60.2508C98.0273 60.4398 97.8982 60.9233 98.1408 61.3353C98.3416 61.6762 98.7627 61.9028 99.3922 62.0087C99.6057 62.0447 99.7492 62.2464 99.7133 62.4599C99.6806 62.6508 99.5144 62.7862 99.3268 62.7862Z" fill="#7D26CD"/>
<path d="M96.4124 63.002C96.31 63.002 96.2073 62.9618 96.1305 62.8823C95.76 62.4979 95.538 61.9715 95.5217 61.4386C95.5151 61.2225 95.6848 61.042 95.9013 61.0352C96.1109 61.0365 96.2982 61.199 96.3048 61.4147C96.3149 61.7557 96.4568 62.0928 96.6942 62.3386C96.8446 62.4946 96.8401 62.7424 96.6844 62.8921C96.6082 62.9657 96.5105 63.002 96.4124 63.002Z" fill="#7D26CD"/>
<path d="M104.69 57.1687C104.456 57.6892 104.48 58.2073 104.744 58.3257C105.007 58.444 105.411 58.1178 105.644 57.5973C105.878 57.0768 105.854 56.5586 105.59 56.4403C105.327 56.3219 104.924 56.6482 104.69 57.1687Z" fill="#10173A"/>
<path d="M97.9118 54.26C97.6509 54.8409 97.6777 55.4189 97.972 55.551C98.2663 55.6831 98.7162 55.3189 98.9771 54.7379C99.2381 54.157 99.2112 53.579 98.917 53.4469C98.6227 53.3151 98.1728 53.679 97.9118 54.26Z" fill="#10173A"/>
<path d="M96.6761 53.8109C96.4858 53.8109 96.3187 53.6723 96.2896 53.4777C96.2573 53.2639 96.4041 53.0645 96.6182 53.0321C97.675 52.8719 98.7472 52.8647 99.805 53.0099C100.019 53.0393 100.169 53.2368 100.139 53.4506C100.11 53.6644 99.9149 53.8174 99.6984 53.7851C98.7148 53.65 97.7176 53.6566 96.735 53.8057C96.7154 53.8096 96.6957 53.8109 96.6761 53.8109Z" fill="#10173A"/>
<path d="M106.297 57.0185C106.27 57.0185 106.243 57.0159 106.216 57.01C105.465 56.8515 104.668 56.8364 103.912 56.9656C103.702 57.0032 103.497 56.859 103.461 56.6455C103.424 56.4327 103.567 56.2303 103.781 56.194C104.634 56.0479 105.531 56.0649 106.377 56.2437C106.589 56.2882 106.724 56.4958 106.68 56.7076C106.641 56.892 106.478 57.0185 106.297 57.0185Z" fill="#10173A"/>
<path d="M97.0005 50.4088C97.0326 50.8642 98.4762 51.1342 99.6187 51.0538C100.761 50.9737 101.17 50.5739 101.138 50.1184C101.106 49.663 100.645 49.324 99.5029 49.4044C98.3604 49.4845 96.9685 49.953 97.0005 50.4088Z" fill="#10173A"/>
<path d="M107.361 54.816C107.759 54.5914 107.526 53.4265 107.078 52.6347C106.63 51.8429 106.138 51.7239 105.74 51.9481C105.343 52.1727 105.191 52.6559 105.638 53.4481C106.086 54.2399 106.964 55.0406 107.361 54.816Z" fill="#10173A"/>
<path d="M95.3938 56.1424C95.1152 56.5671 95.4579 57.2841 96.1589 57.7441C96.8603 58.2041 97.6542 58.2325 97.9328 57.8082C98.2114 57.3835 97.8687 56.6665 97.1676 56.2065C96.4666 55.7465 95.6724 55.7177 95.3938 56.1424Z" fill="#D64747"/>
<path d="M103.091 59.7955C102.852 60.1603 103.146 60.7766 103.749 61.1719C104.351 61.5671 105.034 61.5916 105.273 61.2268C105.513 60.8619 105.218 60.2457 104.616 59.8504C104.013 59.4551 103.33 59.4306 103.091 59.7955Z" fill="#D64747"/>
<path d="M94.1 67.2555C94.0143 67.2555 93.9277 67.2271 93.8551 67.1696C92.9651 66.4555 90.327 63.8296 89.8941 61.2141C89.8584 61.0007 90.003 60.7993 90.2165 60.7643C90.4293 60.7244 90.6314 60.8732 90.6667 61.0866C91.0598 63.4608 93.516 65.8935 94.3456 66.5585C94.5143 66.6939 94.5414 66.9401 94.4061 67.1091C94.3289 67.2055 94.2148 67.2555 94.1 67.2555Z" fill="#7D26CD"/>
<path d="M90.6676 73.2847C90.6676 73.2847 95.1505 76.3942 96.9688 77.578C98.7872 78.7621 100.722 90.0269 87.6201 86.127C74.5184 82.227 72.8086 70.2142 72.8086 70.2142L82.1197 69.0938L90.6676 73.2847Z" fill="white"/>
<path d="M125.811 152.366H147.81L169.809 127.768H147.81L125.811 152.366Z" fill="#10173A"/>
<path d="M165.662 132.336C164.856 133.252 164.049 134.167 163.242 135.083C161.127 134.159 158.951 133.375 156.733 132.737C155.844 132.481 154.9 132.248 154.003 132.473C153.105 132.699 152.293 133.541 152.429 134.456C152.562 135.349 153.464 135.891 154.285 136.267C154.414 136.326 154.358 136.383 154.237 136.31C153.363 135.785 152.437 135.347 151.476 135.004C150.867 134.787 150.225 134.606 149.581 134.67C148.938 134.735 148.289 135.093 148.042 135.691C147.885 136.07 147.903 136.501 147.983 136.904C148.213 138.062 149.045 139.172 150.205 139.399C149.32 138.837 148.156 138.225 147.233 138.723C146.692 139.015 146.377 139.634 146.342 140.249C146.306 140.864 146.516 141.47 146.815 142.009C147.355 142.981 148.198 143.783 149.197 144.272C148.837 143.651 148.028 143.422 147.339 143.624C146.651 143.826 146.147 144.532 146.179 145.249C146.199 145.687 146.394 146.095 146.593 146.485C147.392 148.054 148.396 149.643 149.979 150.413C150.702 150.765 151.551 150.923 152.32 150.686C153.088 150.449 153.741 149.762 153.787 148.959C154.704 149.256 156.121 148.902 156.743 148.166C157.365 147.43 157.57 146.395 157.405 145.445C158.423 145.541 159.757 144.99 160.339 144.149C160.921 143.308 161.009 142.15 160.561 141.231C161.545 140.834 162.439 140.65 163.146 139.858C163.853 139.067 164.271 137.962 164.037 136.927C165.553 136.027 166.216 134.009 165.662 132.336Z" fill="#DBBEF7"/>
<path d="M160.786 140.58C159.343 139.832 157.894 139.081 156.564 138.141C155.201 137.177 154.08 135.968 153.057 134.657C152.669 134.16 151.981 134.858 152.364 135.349C153.414 136.694 154.568 137.906 155.957 138.906C157.316 139.884 158.808 140.657 160.292 141.425C160.851 141.714 161.347 140.87 160.786 140.58Z" fill="#7D26CD"/>
<path d="M157.594 145.003C154.56 142.866 151.693 140.502 149.011 137.935C148.556 137.5 147.863 138.191 148.319 138.628C151.061 141.251 153.998 143.663 157.1 145.849C157.616 146.212 158.106 145.364 157.594 145.003Z" fill="#7D26CD"/>
<path d="M154.17 148.571C151.884 146.898 149.845 144.9 148.105 142.666C147.942 142.457 147.583 142.495 147.412 142.666C147.206 142.872 147.249 143.149 147.412 143.358C149.207 145.662 151.319 147.692 153.676 149.416C153.89 149.572 154.222 149.452 154.346 149.24C154.491 148.992 154.384 148.727 154.17 148.571Z" fill="#7D26CD"/>
<path d="M154.904 133.587C155.001 133.59 154.851 133.573 154.909 133.588C154.969 133.603 154.85 133.545 154.899 133.582C154.924 133.601 154.975 133.651 154.912 133.584C154.93 133.603 154.95 133.624 154.969 133.64C154.939 133.614 154.938 133.591 154.965 133.637C154.966 133.638 155.024 133.747 154.996 133.687C154.971 133.63 155.02 133.834 155.014 133.753C155.017 133.787 155.015 133.821 155.016 133.855C155.015 133.872 155.014 133.889 155.012 133.906C155.018 133.869 155.018 133.868 155.012 133.903C154.997 133.979 154.974 134.054 154.95 134.128C154.945 134.142 154.922 134.203 154.941 134.156C154.925 134.195 154.906 134.233 154.888 134.27C154.857 134.332 154.826 134.391 154.792 134.451C154.729 134.562 154.659 134.67 154.584 134.774C154.565 134.8 154.522 134.856 154.564 134.802C154.546 134.825 154.527 134.849 154.507 134.872C154.464 134.924 154.419 134.975 154.372 135.025C154.279 135.124 154.18 135.218 154.076 135.305C154.048 135.33 154.018 135.354 153.989 135.377C154.028 135.346 154.008 135.363 153.979 135.383C153.918 135.427 153.856 135.47 153.792 135.511C153.578 135.65 153.469 135.952 153.617 136.181C153.755 136.395 154.057 136.505 154.287 136.356C154.914 135.951 155.45 135.378 155.764 134.697C155.953 134.29 156.09 133.806 155.916 133.367C155.744 132.936 155.381 132.623 154.903 132.608C154.647 132.599 154.402 132.839 154.414 133.097C154.427 133.37 154.63 133.578 154.904 133.587Z" fill="#7D26CD"/>
<path d="M149.124 135.534C149.194 135.568 149.263 135.604 149.329 135.646C149.366 135.669 149.402 135.693 149.437 135.718C149.398 135.689 149.451 135.729 149.461 135.738C149.52 135.789 149.578 135.842 149.631 135.899C149.661 135.93 149.69 135.963 149.718 135.996C149.727 136.006 149.766 136.06 149.737 136.02C149.783 136.084 149.825 136.15 149.863 136.218C149.885 136.256 149.904 136.295 149.924 136.333C149.931 136.347 149.957 136.406 149.938 136.359C149.971 136.438 149.997 136.523 150.018 136.606C150.027 136.64 150.033 136.674 150.042 136.707C150.045 136.724 150.048 136.741 150.051 136.758C150.048 136.723 150.048 136.722 150.051 136.757C150.087 137.066 150.049 137.319 149.933 137.584C149.898 137.665 149.782 137.864 149.726 137.936C149.707 137.959 149.632 138.043 149.589 138.087C149.563 138.112 149.538 138.136 149.511 138.16C149.513 138.158 149.399 138.249 149.443 138.217C149.231 138.373 149.125 138.641 149.268 138.886C149.391 139.096 149.723 139.219 149.938 139.062C150.654 138.536 151.124 137.663 151.03 136.757C150.939 135.883 150.418 135.076 149.618 134.688C149.38 134.573 149.089 134.623 148.948 134.864C148.823 135.079 148.885 135.417 149.124 135.534Z" fill="#7D26CD"/>
<path d="M147.401 139.497C147.685 139.629 147.922 139.813 148.081 140.03C148.135 140.103 148.184 140.182 148.228 140.262C148.245 140.294 148.262 140.326 148.278 140.359C148.284 140.373 148.325 140.47 148.305 140.418C148.335 140.494 148.359 140.574 148.38 140.653C148.391 140.697 148.4 140.742 148.409 140.787C148.424 140.858 148.414 140.804 148.418 140.847C148.47 141.468 148.196 142.079 147.683 142.42C147.463 142.566 147.369 142.852 147.508 143.09C147.636 143.308 147.956 143.412 148.177 143.265C148.964 142.742 149.482 141.805 149.397 140.847C149.314 139.918 148.749 139.051 147.895 138.652C147.656 138.54 147.367 138.585 147.225 138.827C147.101 139.039 147.16 139.385 147.401 139.497Z" fill="#7D26CD"/>
<path d="M146.766 144.586C146.821 144.615 146.873 144.647 146.924 144.682C146.989 144.725 146.921 144.67 146.913 144.672C146.919 144.67 146.972 144.725 146.981 144.734C146.997 144.749 147.101 144.836 147.095 144.855C147.06 144.809 147.054 144.8 147.075 144.829C147.082 144.839 147.089 144.849 147.096 144.859C147.114 144.884 147.131 144.91 147.147 144.936C147.175 144.984 147.199 145.034 147.224 145.083C147.252 145.135 147.198 144.998 147.224 145.086C147.233 145.115 147.244 145.144 147.252 145.173C147.258 145.192 147.277 145.331 147.289 145.335C147.274 145.33 147.278 145.226 147.286 145.333C147.288 145.364 147.289 145.395 147.289 145.425C147.289 145.45 147.288 145.475 147.286 145.499C147.285 145.51 147.265 145.616 147.283 145.544C147.301 145.468 147.273 145.583 147.272 145.588C147.266 145.612 147.26 145.636 147.253 145.659C147.245 145.689 147.235 145.718 147.225 145.747C147.19 145.845 147.233 145.758 147.226 145.749C147.235 145.759 147.157 145.881 147.148 145.896C147.132 145.923 147.114 145.947 147.098 145.974C147.05 146.051 147.135 145.935 147.096 145.977C147.058 146.018 147.023 146.06 146.983 146.098C146.961 146.12 146.937 146.139 146.914 146.16C146.866 146.205 147.008 146.099 146.911 146.162C146.859 146.195 146.807 146.227 146.752 146.255C146.524 146.373 146.438 146.711 146.576 146.925C146.726 147.157 147.002 147.227 147.246 147.101C147.858 146.784 148.263 146.113 148.268 145.425C148.273 144.737 147.867 144.064 147.261 143.741C147.035 143.621 146.718 143.677 146.591 143.917C146.471 144.143 146.525 144.458 146.766 144.586Z" fill="#7D26CD"/>
<path d="M37.6771 96.0938C33.222 107.367 29.6762 118.999 27.0852 130.841C26.4025 133.96 25.9101 137.607 28.0139 140.01C29.2721 141.447 31.1934 142.084 33.0353 142.591C37.0859 143.707 57.3943 145.646 65.6875 146.342C67.927 146.53 75.9227 146.718 78.1618 146.906C84.0422 147.4 89.9455 147.897 95.6978 149.214C99.733 150.138 104.025 151.792 107.728 149.943C107.686 149.992 107.657 149.854 107.721 149.857C107.786 149.86 107.814 149.938 107.829 150.001C108.082 151.041 109.25 151.648 110.32 151.612C111.39 151.576 112.376 151.051 113.3 150.512C114.282 149.939 115.291 149.287 115.813 148.277C116.173 147.581 115.9 146.564 115.399 145.961C116.19 145.565 116.947 145.029 117.382 144.259C117.816 143.489 117.727 142.319 117.163 141.638C118.6 140.829 119.243 139.201 118.942 137.58C120.699 137.7 122.238 138.729 123.78 139.579C125.322 140.43 127.141 141.14 128.809 140.577C129.277 140.419 129.726 140.152 130 139.74C130.822 138.509 129.719 136.907 128.585 135.956C122.541 130.886 112.216 128.254 106.377 133.558C104.323 135.424 102.17 137.347 99.5061 138.124C96.0924 139.119 92.4545 138.073 89.0548 137.031C78.8815 133.912 64.8505 128.263 54.6768 125.145C56.6789 120.696 62.6106 109.389 63.7384 106.921C53.8737 101.526 48.6738 98.4382 37.6771 96.0938Z" fill="white"/>
<path d="M119.261 137.057C117.43 135.728 115.105 135.111 112.857 135.361C112.594 135.391 112.367 135.565 112.367 135.851C112.367 136.093 112.592 136.37 112.857 136.34C114.959 136.106 117.055 136.659 118.767 137.902C118.981 138.058 119.312 137.939 119.436 137.727C119.581 137.48 119.475 137.213 119.261 137.057Z" fill="#7D26CD"/>
<path d="M117.634 141.381C116.136 140.275 114.317 139.655 112.458 139.577C111.828 139.55 111.83 140.529 112.458 140.556C114.153 140.627 115.778 141.22 117.14 142.226C117.353 142.383 117.687 142.261 117.81 142.051C117.956 141.802 117.848 141.539 117.634 141.381Z" fill="#7D26CD"/>
<path d="M115.439 145.5C113.928 144.906 112.359 144.517 110.751 144.302C110.489 144.267 110.262 144.552 110.262 144.791C110.262 145.085 110.488 145.246 110.751 145.281C112.267 145.483 113.757 145.885 115.179 146.444C115.425 146.54 115.716 146.337 115.781 146.102C115.857 145.824 115.686 145.597 115.439 145.5Z" fill="#7D26CD"/>
<path d="M109.669 147.984C108.614 148.156 107.594 148.576 106.723 149.194C106.514 149.342 106.395 149.628 106.547 149.863C106.681 150.07 106.993 150.197 107.217 150.039C107.43 149.888 107.651 149.748 107.88 149.622C107.98 149.567 108.082 149.515 108.184 149.465C108.243 149.437 108.302 149.409 108.362 149.382C108.392 149.369 108.422 149.356 108.451 149.343C108.41 149.36 108.416 149.358 108.47 149.335C108.942 149.148 109.428 149.01 109.929 148.928C110.182 148.887 110.346 148.559 110.271 148.326C110.182 148.051 109.94 147.94 109.669 147.984Z" fill="#7D26CD"/>
<path d="M111.196 148.938C110.874 148.37 110.552 147.802 110.23 147.235C110.104 147.012 109.781 146.917 109.561 147.059C109.335 147.204 109.25 147.491 109.385 147.729C109.707 148.296 110.029 148.864 110.351 149.432C110.477 149.655 110.8 149.749 111.02 149.607C111.245 149.462 111.331 149.177 111.196 148.938Z" fill="#7D26CD"/>
<path d="M129.339 139.881C128.395 139.726 127.581 139.147 127.161 138.281C126.721 137.371 126.879 136.266 127.439 135.45C127.797 134.929 126.949 134.439 126.594 134.956C125.841 136.051 125.733 137.502 126.284 138.706C126.787 139.807 127.888 140.629 129.079 140.825C129.339 140.868 129.606 140.757 129.681 140.483C129.745 140.249 129.601 139.925 129.339 139.881Z" fill="#7D26CD"/>
<path d="M55.9283 125.097C51.0922 123.912 46.0862 123.592 41.1403 124.172C40.5219 124.244 40.5148 125.224 41.1403 125.151C46.0021 124.581 50.9127 124.875 55.668 126.041C56.2798 126.191 56.541 125.247 55.9283 125.097Z" fill="#7D26CD"/>
<path d="M110.29 135.795C109.252 135.795 108.408 134.951 108.408 133.914C108.408 132.877 109.252 132.033 110.29 132.033C111.327 132.033 112.171 132.877 112.171 133.914C112.171 134.951 111.327 135.795 110.29 135.795ZM110.29 132.816C109.684 132.816 109.191 133.309 109.191 133.914C109.191 134.52 109.684 135.012 110.29 135.012C110.896 135.012 111.388 134.52 111.388 133.914C111.388 133.309 110.896 132.816 110.29 132.816Z" fill="#7D26CD"/>
<path d="M109.262 140.457C108.225 140.457 107.381 139.614 107.381 138.576C107.381 137.539 108.225 136.695 109.262 136.695C110.299 136.695 111.143 137.539 111.143 138.576C111.143 139.614 110.299 140.457 109.262 140.457ZM109.262 137.478C108.657 137.478 108.164 137.971 108.164 138.576C108.164 139.182 108.656 139.674 109.262 139.674C109.868 139.674 110.36 139.182 110.36 138.576C110.36 137.971 109.868 137.478 109.262 137.478Z" fill="#7D26CD"/>
<path d="M107.772 145.174C106.735 145.174 105.891 144.33 105.891 143.293C105.891 142.256 106.735 141.412 107.772 141.412C108.809 141.412 109.653 142.256 109.653 143.293C109.653 144.33 108.809 145.174 107.772 145.174ZM107.772 142.195C107.166 142.195 106.674 142.687 106.674 143.293C106.674 143.899 107.166 144.391 107.772 144.391C108.377 144.391 108.87 143.899 108.87 143.293C108.87 142.687 108.377 142.195 107.772 142.195Z" fill="#7D26CD"/>
<path d="M30.75 99.9635C30.75 99.9635 58.7061 115.175 64.221 116.507C69.7358 117.838 71.8282 99.9635 71.8282 99.9635L41.1404 86.9434L30.75 99.9635Z" fill="#7D26CD"/>
<path d="M100.111 79.6348C121.274 90.8368 121.778 102.238 125.149 115.114C119.918 117.613 114.629 119.155 108.92 120.159C107.518 107.424 102.299 92.259 100.111 79.6348Z" fill="#7D26CD"/>
<path d="M59.7986 76.0366C64.4044 81.8273 66.825 89.1522 66.6305 96.5422C66.6138 97.1722 67.5928 97.1719 67.6095 96.5422C67.8112 88.8769 65.2604 81.3411 60.4908 75.3445C60.0987 74.8515 59.4101 75.5482 59.7986 76.0366Z" fill="#10173A"/>
<path d="M65.1727 101.5C64.5655 106.141 63.3602 110.688 61.6191 115.031C61.3846 115.616 62.3312 115.87 62.563 115.291C64.3395 110.859 65.532 106.233 66.1517 101.5C66.2334 100.877 65.2534 100.883 65.1727 101.5Z" fill="#10173A"/>
<path d="M108.668 91.778C112.771 104.068 114.707 117.075 114.067 130.029C114.036 130.658 115.015 130.657 115.046 130.029C115.69 116.997 113.74 103.883 109.612 91.5178C109.414 90.9231 108.468 91.1781 108.668 91.778Z" fill="#10173A"/>
<path d="M75.9106 198.97C75.9077 197.183 76.4194 195.481 76.9298 193.785C77.4291 192.126 77.9755 190.469 78.8891 188.984C80.4684 186.418 82.9616 184.493 85.8211 183.562C86.4175 183.368 86.1624 182.423 85.5608 182.618C82.532 183.604 79.8972 185.598 78.173 188.284C77.1953 189.807 76.594 191.526 76.0695 193.248C75.5006 195.115 74.9284 197 74.9317 198.97C74.9326 199.6 75.9116 199.601 75.9106 198.97Z" fill="#7D26CD"/>
<path d="M81.3912 189.524C82.5019 189.071 83.5188 188.459 84.4337 187.682C84.6296 187.516 84.6178 187.159 84.4337 186.99C84.2251 186.799 83.9504 186.812 83.7415 186.99C83.6408 187.076 83.5384 187.159 83.4351 187.241C83.4184 187.254 83.3759 187.287 83.4168 187.256C83.3906 187.276 83.3642 187.296 83.3377 187.316C83.2847 187.355 83.2317 187.395 83.1781 187.433C82.9571 187.593 82.7295 187.743 82.4963 187.885C82.2704 188.022 82.0392 188.151 81.8035 188.27C81.6854 188.33 81.5664 188.387 81.4464 188.442C81.3862 188.47 81.3261 188.497 81.2656 188.523C81.2577 188.526 81.1747 188.562 81.21 188.547C81.2483 188.531 81.1283 188.581 81.1312 188.58C80.8951 188.676 80.7012 188.91 80.7892 189.182C80.8628 189.41 81.1371 189.627 81.3912 189.524Z" fill="#7D26CD"/>
<path d="M51.9176 171.711C50.8576 174.637 48.1515 176.862 45.0615 177.308C43.2393 177.571 41.3317 177.176 39.5951 176.63C37.9471 176.112 36.3468 175.293 35.3136 173.864C34.948 173.358 34.0982 173.846 34.4683 174.358C35.5526 175.858 37.0999 176.791 38.8237 177.404C40.7827 178.1 42.9944 178.554 45.073 178.286C48.6178 177.828 51.6515 175.312 52.8616 171.971C53.0765 171.377 52.1308 171.122 51.9176 171.711Z" fill="#7D26CD"/>
<path d="M38.8052 177.314C37.7565 181.236 37.1896 185.273 37.1153 189.333C37.1039 189.963 38.0829 189.963 38.0943 189.333C38.1669 185.357 38.7221 181.416 39.7492 177.574C39.9123 176.965 38.968 176.705 38.8052 177.314Z" fill="#7D26CD"/>
<path d="M104.824 181.085C102.373 179.222 100.665 176.484 100.006 173.484C99.871 172.869 98.927 173.129 99.062 173.744C99.7791 177.009 101.674 179.911 104.33 181.93C104.831 182.311 105.319 181.461 104.824 181.085Z" fill="#7D26CD"/>
</svg>
